<svg xmlns="http://www.w3.org/2000/svg" width="900" height="600" viewBox="0 0 900 600">
<title>CM5 connector active footprint before and after</title>
<rect width="900" height="600" fill="white"/>
<text x="20" y="28" font-family="sans-serif" font-size="16">CM5 J2A footprint — red: old 1x100 study; blue: official 2x50 pattern</text>
<line x1="480" y1="40" x2="480" y2="560" stroke="#bbb"/><line x1="80" y1="250" x2="840" y2="250" stroke="#bbb"/>
<rect x="301.80" y="226.78" width="3.60" height="3.60" fill="#d62728" fill-opacity="0.5" stroke="#d62728" stroke-width="0.6" />
<rect x="309.00" y="226.78" width="3.60" height="3.60" fill="#d62728" fill-opacity="0.5" stroke="#d62728" stroke-width="0.6" />
<rect x="316.20" y="226.78" width="3.60" height="3.60" fill="#d62728" fill-opacity="0.5" stroke="#d62728" stroke-width="0.6" />
<rect x="323.40" y="226.78" width="3.60" height="3.60" fill="#d62728" fill-opacity="0.5" stroke="#d62728" stroke-width="0.6" />
<rect x="330.60" y="226.78" width="3.60" height="3.60" fill="#d62728" fill-opacity="0.5" stroke="#d62728" stroke-width="0.6" />
<rect x="337.80" y="226.78" width="3.60" height="3.60" fill="#d62728" fill-opacity="0.5" stroke="#d62728" stroke-width="0.6" />
<rect x="345.00" y="226.78" width="3.60" height="3.60" fill="#d62728" fill-opacity="0.5" stroke="#d62728" stroke-width="0.6" />
<rect x="352.20" y="226.78" width="3.60" height="3.60" fill="#d62728" fill-opacity="0.5" stroke="#d62728" stroke-width="0.6" />
<rect x="359.40" y="226.78" width="3.60" height="3.60" fill="#d62728" fill-opacity="0.5" stroke="#d62728" stroke-width="0.6" />
<rect x="366.60" y="226.78" width="3.60" height="3.60" fill="#d62728" fill-opacity="0.5" stroke="#d62728" stroke-width="0.6" />
<rect x="373.80" y="226.78" width="3.60" height="3.60" fill="#d62728" fill-opacity="0.5" stroke="#d62728" stroke-width="0.6" />
<rect x="381.00" y="226.78" width="3.60" height="3.60" fill="#d62728" fill-opacity="0.5" stroke="#d62728" stroke-width="0.6" />
<rect x="388.20" y="226.78" width="3.60" height="3.60" fill="#d62728" fill-opacity="0.5" stroke="#d62728" stroke-width="0.6" />
<rect x="395.40" y="226.78" width="3.60" height="3.60" fill="#d62728" fill-opacity="0.5" stroke="#d62728" stroke-width="0.6" />
<rect x="402.60" y="226.78" width="3.60" height="3.60" fill="#d62728" fill-opacity="0.5" stroke="#d62728" stroke-width="0.6" />
<rect x="409.80" y="226.78" width="3.60" height="3.60" fill="#d62728" fill-opacity="0.5" stroke="#d62728" stroke-width="0.6" />
<rect x="417.00" y="226.78" width="3.60" height="3.60" fill="#d62728" fill-opacity="0.5" stroke="#d62728" stroke-width="0.6" />
<rect x="424.20" y="226.78" width="3.60" height="3.60" fill="#d62728" fill-opacity="0.5" stroke="#d62728" stroke-width="0.6" />
<rect x="431.40" y="226.78" width="3.60" height="3.60" fill="#d62728" fill-opacity="0.5" stroke="#d62728" stroke-width="0.6" />
<rect x="438.60" y="226.78" width="3.60" height="3.60" fill="#d62728" fill-opacity="0.5" stroke="#d62728" stroke-width="0.6" />
<rect x="445.80" y="226.78" width="3.60" height="3.60" fill="#d62728" fill-opacity="0.5" stroke="#d62728" stroke-width="0.6" />
<rect x="453.00" y="226.78" width="3.60" height="3.60" fill="#d62728" fill-opacity="0.5" stroke="#d62728" stroke-width="0.6" />
<rect x="460.20" y="226.78" width="3.60" height="3.60" fill="#d62728" fill-opacity="0.5" stroke="#d62728" stroke-width="0.6" />
<rect x="467.40" y="226.78" width="3.60" height="3.60" fill="#d62728" fill-opacity="0.5" stroke="#d62728" stroke-width="0.6" />
<rect x="474.60" y="226.78" width="3.60" height="3.60" fill="#d62728" fill-opacity="0.5" stroke="#d62728" stroke-width="0.6" />
<rect x="481.80" y="226.78" width="3.60" height="3.60" fill="#d62728" fill-opacity="0.5" stroke="#d62728" stroke-width="0.6" />
<rect x="489.00" y="226.78" width="3.60" height="3.60" fill="#d62728" fill-opacity="0.5" stroke="#d62728" stroke-width="0.6" />
<rect x="496.20" y="226.78" width="3.60" height="3.60" fill="#d62728" fill-opacity="0.5" stroke="#d62728" stroke-width="0.6" />
<rect x="503.40" y="226.78" width="3.60" height="3.60" fill="#d62728" fill-opacity="0.5" stroke="#d62728" stroke-width="0.6" />
<rect x="510.60" y="226.78" width="3.60" height="3.60" fill="#d62728" fill-opacity="0.5" stroke="#d62728" stroke-width="0.6" />
<rect x="517.80" y="226.78" width="3.60" height="3.60" fill="#d62728" fill-opacity="0.5" stroke="#d62728" stroke-width="0.6" />
<rect x="525.00" y="226.78" width="3.60" height="3.60" fill="#d62728" fill-opacity="0.5" stroke="#d62728" stroke-width="0.6" />
<rect x="532.20" y="226.78" width="3.60" height="3.60" fill="#d62728" fill-opacity="0.5" stroke="#d62728" stroke-width="0.6" />
<rect x="539.40" y="226.78" width="3.60" height="3.60" fill="#d62728" fill-opacity="0.5" stroke="#d62728" stroke-width="0.6" />
<rect x="546.60" y="226.78" width="3.60" height="3.60" fill="#d62728" fill-opacity="0.5" stroke="#d62728" stroke-width="0.6" />
<rect x="553.80" y="226.78" width="3.60" height="3.60" fill="#d62728" fill-opacity="0.5" stroke="#d62728" stroke-width="0.6" />
<rect x="561.00" y="226.78" width="3.60" height="3.60" fill="#d62728" fill-opacity="0.5" stroke="#d62728" stroke-width="0.6" />
<rect x="568.20" y="226.78" width="3.60" height="3.60" fill="#d62728" fill-opacity="0.5" stroke="#d62728" stroke-width="0.6" />
<rect x="575.40" y="226.78" width="3.60" height="3.60" fill="#d62728" fill-opacity="0.5" stroke="#d62728" stroke-width="0.6" />
<rect x="582.60" y="226.78" width="3.60" height="3.60" fill="#d62728" fill-opacity="0.5" stroke="#d62728" stroke-width="0.6" />
<rect x="589.80" y="226.78" width="3.60" height="3.60" fill="#d62728" fill-opacity="0.5" stroke="#d62728" stroke-width="0.6" />
<rect x="597.00" y="226.78" width="3.60" height="3.60" fill="#d62728" fill-opacity="0.5" stroke="#d62728" stroke-width="0.6" />
<rect x="604.20" y="226.78" width="3.60" height="3.60" fill="#d62728" fill-opacity="0.5" stroke="#d62728" stroke-width="0.6" />
<rect x="611.40" y="226.78" width="3.60" height="3.60" fill="#d62728" fill-opacity="0.5" stroke="#d62728" stroke-width="0.6" />
<rect x="618.60" y="226.78" width="3.60" height="3.60" fill="#d62728" fill-opacity="0.5" stroke="#d62728" stroke-width="0.6" />
<rect x="625.80" y="226.78" width="3.60" height="3.60" fill="#d62728" fill-opacity="0.5" stroke="#d62728" stroke-width="0.6" />
<rect x="633.00" y="226.78" width="3.60" height="3.60" fill="#d62728" fill-opacity="0.5" stroke="#d62728" stroke-width="0.6" />
<rect x="640.20" y="226.78" width="3.60" height="3.60" fill="#d62728" fill-opacity="0.5" stroke="#d62728" stroke-width="0.6" />
<rect x="647.40" y="226.78" width="3.60" height="3.60" fill="#d62728" fill-opacity="0.5" stroke="#d62728" stroke-width="0.6" />
<rect x="654.60" y="226.78" width="3.60" height="3.60" fill="#d62728" fill-opacity="0.5" stroke="#d62728" stroke-width="0.6" />
<rect x="301.80" y="269.62" width="3.60" height="3.60" fill="#d62728" fill-opacity="0.5" stroke="#d62728" stroke-width="0.6" />
<rect x="309.00" y="269.62" width="3.60" height="3.60" fill="#d62728" fill-opacity="0.5" stroke="#d62728" stroke-width="0.6" />
<rect x="316.20" y="269.62" width="3.60" height="3.60" fill="#d62728" fill-opacity="0.5" stroke="#d62728" stroke-width="0.6" />
<rect x="323.40" y="269.62" width="3.60" height="3.60" fill="#d62728" fill-opacity="0.5" stroke="#d62728" stroke-width="0.6" />
<rect x="330.60" y="269.62" width="3.60" height="3.60" fill="#d62728" fill-opacity="0.5" stroke="#d62728" stroke-width="0.6" />
<rect x="337.80" y="269.62" width="3.60" height="3.60" fill="#d62728" fill-opacity="0.5" stroke="#d62728" stroke-width="0.6" />
<rect x="345.00" y="269.62" width="3.60" height="3.60" fill="#d62728" fill-opacity="0.5" stroke="#d62728" stroke-width="0.6" />
<rect x="352.20" y="269.62" width="3.60" height="3.60" fill="#d62728" fill-opacity="0.5" stroke="#d62728" stroke-width="0.6" />
<rect x="359.40" y="269.62" width="3.60" height="3.60" fill="#d62728" fill-opacity="0.5" stroke="#d62728" stroke-width="0.6" />
<rect x="366.60" y="269.62" width="3.60" height="3.60" fill="#d62728" fill-opacity="0.5" stroke="#d62728" stroke-width="0.6" />
<rect x="373.80" y="269.62" width="3.60" height="3.60" fill="#d62728" fill-opacity="0.5" stroke="#d62728" stroke-width="0.6" />
<rect x="381.00" y="269.62" width="3.60" height="3.60" fill="#d62728" fill-opacity="0.5" stroke="#d62728" stroke-width="0.6" />
<rect x="388.20" y="269.62" width="3.60" height="3.60" fill="#d62728" fill-opacity="0.5" stroke="#d62728" stroke-width="0.6" />
<rect x="395.40" y="269.62" width="3.60" height="3.60" fill="#d62728" fill-opacity="0.5" stroke="#d62728" stroke-width="0.6" />
<rect x="402.60" y="269.62" width="3.60" height="3.60" fill="#d62728" fill-opacity="0.5" stroke="#d62728" stroke-width="0.6" />
<rect x="409.80" y="269.62" width="3.60" height="3.60" fill="#d62728" fill-opacity="0.5" stroke="#d62728" stroke-width="0.6" />
<rect x="417.00" y="269.62" width="3.60" height="3.60" fill="#d62728" fill-opacity="0.5" stroke="#d62728" stroke-width="0.6" />
<rect x="424.20" y="269.62" width="3.60" height="3.60" fill="#d62728" fill-opacity="0.5" stroke="#d62728" stroke-width="0.6" />
<rect x="431.40" y="269.62" width="3.60" height="3.60" fill="#d62728" fill-opacity="0.5" stroke="#d62728" stroke-width="0.6" />
<rect x="438.60" y="269.62" width="3.60" height="3.60" fill="#d62728" fill-opacity="0.5" stroke="#d62728" stroke-width="0.6" />
<rect x="445.80" y="269.62" width="3.60" height="3.60" fill="#d62728" fill-opacity="0.5" stroke="#d62728" stroke-width="0.6" />
<rect x="453.00" y="269.62" width="3.60" height="3.60" fill="#d62728" fill-opacity="0.5" stroke="#d62728" stroke-width="0.6" />
<rect x="460.20" y="269.62" width="3.60" height="3.60" fill="#d62728" fill-opacity="0.5" stroke="#d62728" stroke-width="0.6" />
<rect x="467.40" y="269.62" width="3.60" height="3.60" fill="#d62728" fill-opacity="0.5" stroke="#d62728" stroke-width="0.6" />
<rect x="474.60" y="269.62" width="3.60" height="3.60" fill="#d62728" fill-opacity="0.5" stroke="#d62728" stroke-width="0.6" />
<rect x="481.80" y="269.62" width="3.60" height="3.60" fill="#d62728" fill-opacity="0.5" stroke="#d62728" stroke-width="0.6" />
<rect x="489.00" y="269.62" width="3.60" height="3.60" fill="#d62728" fill-opacity="0.5" stroke="#d62728" stroke-width="0.6" />
<rect x="496.20" y="269.62" width="3.60" height="3.60" fill="#d62728" fill-opacity="0.5" stroke="#d62728" stroke-width="0.6" />
<rect x="503.40" y="269.62" width="3.60" height="3.60" fill="#d62728" fill-opacity="0.5" stroke="#d62728" stroke-width="0.6" />
<rect x="510.60" y="269.62" width="3.60" height="3.60" fill="#d62728" fill-opacity="0.5" stroke="#d62728" stroke-width="0.6" />
<rect x="517.80" y="269.62" width="3.60" height="3.60" fill="#d62728" fill-opacity="0.5" stroke="#d62728" stroke-width="0.6" />
<rect x="525.00" y="269.62" width="3.60" height="3.60" fill="#d62728" fill-opacity="0.5" stroke="#d62728" stroke-width="0.6" />
<rect x="532.20" y="269.62" width="3.60" height="3.60" fill="#d62728" fill-opacity="0.5" stroke="#d62728" stroke-width="0.6" />
<rect x="539.40" y="269.62" width="3.60" height="3.60" fill="#d62728" fill-opacity="0.5" stroke="#d62728" stroke-width="0.6" />
<rect x="546.60" y="269.62" width="3.60" height="3.60" fill="#d62728" fill-opacity="0.5" stroke="#d62728" stroke-width="0.6" />
<rect x="553.80" y="269.62" width="3.60" height="3.60" fill="#d62728" fill-opacity="0.5" stroke="#d62728" stroke-width="0.6" />
<rect x="561.00" y="269.62" width="3.60" height="3.60" fill="#d62728" fill-opacity="0.5" stroke="#d62728" stroke-width="0.6" />
<rect x="568.20" y="269.62" width="3.60" height="3.60" fill="#d62728" fill-opacity="0.5" stroke="#d62728" stroke-width="0.6" />
<rect x="575.40" y="269.62" width="3.60" height="3.60" fill="#d62728" fill-opacity="0.5" stroke="#d62728" stroke-width="0.6" />
<rect x="582.60" y="269.62" width="3.60" height="3.60" fill="#d62728" fill-opacity="0.5" stroke="#d62728" stroke-width="0.6" />
<rect x="589.80" y="269.62" width="3.60" height="3.60" fill="#d62728" fill-opacity="0.5" stroke="#d62728" stroke-width="0.6" />
<rect x="597.00" y="269.62" width="3.60" height="3.60" fill="#d62728" fill-opacity="0.5" stroke="#d62728" stroke-width="0.6" />
<rect x="604.20" y="269.62" width="3.60" height="3.60" fill="#d62728" fill-opacity="0.5" stroke="#d62728" stroke-width="0.6" />
<rect x="611.40" y="269.62" width="3.60" height="3.60" fill="#d62728" fill-opacity="0.5" stroke="#d62728" stroke-width="0.6" />
<rect x="618.60" y="269.62" width="3.60" height="3.60" fill="#d62728" fill-opacity="0.5" stroke="#d62728" stroke-width="0.6" />
<rect x="625.80" y="269.62" width="3.60" height="3.60" fill="#d62728" fill-opacity="0.5" stroke="#d62728" stroke-width="0.6" />
<rect x="633.00" y="269.62" width="3.60" height="3.60" fill="#d62728" fill-opacity="0.5" stroke="#d62728" stroke-width="0.6" />
<rect x="640.20" y="269.62" width="3.60" height="3.60" fill="#d62728" fill-opacity="0.5" stroke="#d62728" stroke-width="0.6" />
<rect x="647.40" y="269.62" width="3.60" height="3.60" fill="#d62728" fill-opacity="0.5" stroke="#d62728" stroke-width="0.6" />
<rect x="654.60" y="269.62" width="3.60" height="3.60" fill="#d62728" fill-opacity="0.5" stroke="#d62728" stroke-width="0.6" />
<rect x="301.80" y="226.78" width="3.60" height="3.60" fill="#1f77b4" fill-opacity="0.5" stroke="#1f77b4" stroke-width="0.6" />
<rect x="309.00" y="226.78" width="3.60" height="3.60" fill="#1f77b4" fill-opacity="0.5" stroke="#1f77b4" stroke-width="0.6" />
<rect x="316.20" y="226.78" width="3.60" height="3.60" fill="#1f77b4" fill-opacity="0.5" stroke="#1f77b4" stroke-width="0.6" />
<rect x="323.40" y="226.78" width="3.60" height="3.60" fill="#1f77b4" fill-opacity="0.5" stroke="#1f77b4" stroke-width="0.6" />
<rect x="330.60" y="226.78" width="3.60" height="3.60" fill="#1f77b4" fill-opacity="0.5" stroke="#1f77b4" stroke-width="0.6" />
<rect x="337.80" y="226.78" width="3.60" height="3.60" fill="#1f77b4" fill-opacity="0.5" stroke="#1f77b4" stroke-width="0.6" />
<rect x="345.00" y="226.78" width="3.60" height="3.60" fill="#1f77b4" fill-opacity="0.5" stroke="#1f77b4" stroke-width="0.6" />
<rect x="352.20" y="226.78" width="3.60" height="3.60" fill="#1f77b4" fill-opacity="0.5" stroke="#1f77b4" stroke-width="0.6" />
<rect x="359.40" y="226.78" width="3.60" height="3.60" fill="#1f77b4" fill-opacity="0.5" stroke="#1f77b4" stroke-width="0.6" />
<rect x="366.60" y="226.78" width="3.60" height="3.60" fill="#1f77b4" fill-opacity="0.5" stroke="#1f77b4" stroke-width="0.6" />
<rect x="373.80" y="226.78" width="3.60" height="3.60" fill="#1f77b4" fill-opacity="0.5" stroke="#1f77b4" stroke-width="0.6" />
<rect x="381.00" y="226.78" width="3.60" height="3.60" fill="#1f77b4" fill-opacity="0.5" stroke="#1f77b4" stroke-width="0.6" />
<rect x="388.20" y="226.78" width="3.60" height="3.60" fill="#1f77b4" fill-opacity="0.5" stroke="#1f77b4" stroke-width="0.6" />
<rect x="395.40" y="226.78" width="3.60" height="3.60" fill="#1f77b4" fill-opacity="0.5" stroke="#1f77b4" stroke-width="0.6" />
<rect x="402.60" y="226.78" width="3.60" height="3.60" fill="#1f77b4" fill-opacity="0.5" stroke="#1f77b4" stroke-width="0.6" />
<rect x="409.80" y="226.78" width="3.60" height="3.60" fill="#1f77b4" fill-opacity="0.5" stroke="#1f77b4" stroke-width="0.6" />
<rect x="417.00" y="226.78" width="3.60" height="3.60" fill="#1f77b4" fill-opacity="0.5" stroke="#1f77b4" stroke-width="0.6" />
<rect x="424.20" y="226.78" width="3.60" height="3.60" fill="#1f77b4" fill-opacity="0.5" stroke="#1f77b4" stroke-width="0.6" />
<rect x="431.40" y="226.78" width="3.60" height="3.60" fill="#1f77b4" fill-opacity="0.5" stroke="#1f77b4" stroke-width="0.6" />
<rect x="438.60" y="226.78" width="3.60" height="3.60" fill="#1f77b4" fill-opacity="0.5" stroke="#1f77b4" stroke-width="0.6" />
<rect x="445.80" y="226.78" width="3.60" height="3.60" fill="#1f77b4" fill-opacity="0.5" stroke="#1f77b4" stroke-width="0.6" />
<rect x="453.00" y="226.78" width="3.60" height="3.60" fill="#1f77b4" fill-opacity="0.5" stroke="#1f77b4" stroke-width="0.6" />
<rect x="460.20" y="226.78" width="3.60" height="3.60" fill="#1f77b4" fill-opacity="0.5" stroke="#1f77b4" stroke-width="0.6" />
<rect x="467.40" y="226.78" width="3.60" height="3.60" fill="#1f77b4" fill-opacity="0.5" stroke="#1f77b4" stroke-width="0.6" />
<rect x="474.60" y="226.78" width="3.60" height="3.60" fill="#1f77b4" fill-opacity="0.5" stroke="#1f77b4" stroke-width="0.6" />
<rect x="481.80" y="226.78" width="3.60" height="3.60" fill="#1f77b4" fill-opacity="0.5" stroke="#1f77b4" stroke-width="0.6" />
<rect x="489.00" y="226.78" width="3.60" height="3.60" fill="#1f77b4" fill-opacity="0.5" stroke="#1f77b4" stroke-width="0.6" />
<rect x="496.20" y="226.78" width="3.60" height="3.60" fill="#1f77b4" fill-opacity="0.5" stroke="#1f77b4" stroke-width="0.6" />
<rect x="503.40" y="226.78" width="3.60" height="3.60" fill="#1f77b4" fill-opacity="0.5" stroke="#1f77b4" stroke-width="0.6" />
<rect x="510.60" y="226.78" width="3.60" height="3.60" fill="#1f77b4" fill-opacity="0.5" stroke="#1f77b4" stroke-width="0.6" />
<rect x="517.80" y="226.78" width="3.60" height="3.60" fill="#1f77b4" fill-opacity="0.5" stroke="#1f77b4" stroke-width="0.6" />
<rect x="525.00" y="226.78" width="3.60" height="3.60" fill="#1f77b4" fill-opacity="0.5" stroke="#1f77b4" stroke-width="0.6" />
<rect x="532.20" y="226.78" width="3.60" height="3.60" fill="#1f77b4" fill-opacity="0.5" stroke="#1f77b4" stroke-width="0.6" />
<rect x="539.40" y="226.78" width="3.60" height="3.60" fill="#1f77b4" fill-opacity="0.5" stroke="#1f77b4" stroke-width="0.6" />
<rect x="546.60" y="226.78" width="3.60" height="3.60" fill="#1f77b4" fill-opacity="0.5" stroke="#1f77b4" stroke-width="0.6" />
<rect x="553.80" y="226.78" width="3.60" height="3.60" fill="#1f77b4" fill-opacity="0.5" stroke="#1f77b4" stroke-width="0.6" />
<rect x="561.00" y="226.78" width="3.60" height="3.60" fill="#1f77b4" fill-opacity="0.5" stroke="#1f77b4" stroke-width="0.6" />
<rect x="568.20" y="226.78" width="3.60" height="3.60" fill="#1f77b4" fill-opacity="0.5" stroke="#1f77b4" stroke-width="0.6" />
<rect x="575.40" y="226.78" width="3.60" height="3.60" fill="#1f77b4" fill-opacity="0.5" stroke="#1f77b4" stroke-width="0.6" />
<rect x="582.60" y="226.78" width="3.60" height="3.60" fill="#1f77b4" fill-opacity="0.5" stroke="#1f77b4" stroke-width="0.6" />
<rect x="589.80" y="226.78" width="3.60" height="3.60" fill="#1f77b4" fill-opacity="0.5" stroke="#1f77b4" stroke-width="0.6" />
<rect x="597.00" y="226.78" width="3.60" height="3.60" fill="#1f77b4" fill-opacity="0.5" stroke="#1f77b4" stroke-width="0.6" />
<rect x="604.20" y="226.78" width="3.60" height="3.60" fill="#1f77b4" fill-opacity="0.5" stroke="#1f77b4" stroke-width="0.6" />
<rect x="611.40" y="226.78" width="3.60" height="3.60" fill="#1f77b4" fill-opacity="0.5" stroke="#1f77b4" stroke-width="0.6" />
<rect x="618.60" y="226.78" width="3.60" height="3.60" fill="#1f77b4" fill-opacity="0.5" stroke="#1f77b4" stroke-width="0.6" />
<rect x="625.80" y="226.78" width="3.60" height="3.60" fill="#1f77b4" fill-opacity="0.5" stroke="#1f77b4" stroke-width="0.6" />
<rect x="633.00" y="226.78" width="3.60" height="3.60" fill="#1f77b4" fill-opacity="0.5" stroke="#1f77b4" stroke-width="0.6" />
<rect x="640.20" y="226.78" width="3.60" height="3.60" fill="#1f77b4" fill-opacity="0.5" stroke="#1f77b4" stroke-width="0.6" />
<rect x="647.40" y="226.78" width="3.60" height="3.60" fill="#1f77b4" fill-opacity="0.5" stroke="#1f77b4" stroke-width="0.6" />
<rect x="654.60" y="226.78" width="3.60" height="3.60" fill="#1f77b4" fill-opacity="0.5" stroke="#1f77b4" stroke-width="0.6" />
<rect x="301.80" y="269.62" width="3.60" height="3.60" fill="#1f77b4" fill-opacity="0.5" stroke="#1f77b4" stroke-width="0.6" />
<rect x="309.00" y="269.62" width="3.60" height="3.60" fill="#1f77b4" fill-opacity="0.5" stroke="#1f77b4" stroke-width="0.6" />
<rect x="316.20" y="269.62" width="3.60" height="3.60" fill="#1f77b4" fill-opacity="0.5" stroke="#1f77b4" stroke-width="0.6" />
<rect x="323.40" y="269.62" width="3.60" height="3.60" fill="#1f77b4" fill-opacity="0.5" stroke="#1f77b4" stroke-width="0.6" />
<rect x="330.60" y="269.62" width="3.60" height="3.60" fill="#1f77b4" fill-opacity="0.5" stroke="#1f77b4" stroke-width="0.6" />
<rect x="337.80" y="269.62" width="3.60" height="3.60" fill="#1f77b4" fill-opacity="0.5" stroke="#1f77b4" stroke-width="0.6" />
<rect x="345.00" y="269.62" width="3.60" height="3.60" fill="#1f77b4" fill-opacity="0.5" stroke="#1f77b4" stroke-width="0.6" />
<rect x="352.20" y="269.62" width="3.60" height="3.60" fill="#1f77b4" fill-opacity="0.5" stroke="#1f77b4" stroke-width="0.6" />
<rect x="359.40" y="269.62" width="3.60" height="3.60" fill="#1f77b4" fill-opacity="0.5" stroke="#1f77b4" stroke-width="0.6" />
<rect x="366.60" y="269.62" width="3.60" height="3.60" fill="#1f77b4" fill-opacity="0.5" stroke="#1f77b4" stroke-width="0.6" />
<rect x="373.80" y="269.62" width="3.60" height="3.60" fill="#1f77b4" fill-opacity="0.5" stroke="#1f77b4" stroke-width="0.6" />
<rect x="381.00" y="269.62" width="3.60" height="3.60" fill="#1f77b4" fill-opacity="0.5" stroke="#1f77b4" stroke-width="0.6" />
<rect x="388.20" y="269.62" width="3.60" height="3.60" fill="#1f77b4" fill-opacity="0.5" stroke="#1f77b4" stroke-width="0.6" />
<rect x="395.40" y="269.62" width="3.60" height="3.60" fill="#1f77b4" fill-opacity="0.5" stroke="#1f77b4" stroke-width="0.6" />
<rect x="402.60" y="269.62" width="3.60" height="3.60" fill="#1f77b4" fill-opacity="0.5" stroke="#1f77b4" stroke-width="0.6" />
<rect x="409.80" y="269.62" width="3.60" height="3.60" fill="#1f77b4" fill-opacity="0.5" stroke="#1f77b4" stroke-width="0.6" />
<rect x="417.00" y="269.62" width="3.60" height="3.60" fill="#1f77b4" fill-opacity="0.5" stroke="#1f77b4" stroke-width="0.6" />
<rect x="424.20" y="269.62" width="3.60" height="3.60" fill="#1f77b4" fill-opacity="0.5" stroke="#1f77b4" stroke-width="0.6" />
<rect x="431.40" y="269.62" width="3.60" height="3.60" fill="#1f77b4" fill-opacity="0.5" stroke="#1f77b4" stroke-width="0.6" />
<rect x="438.60" y="269.62" width="3.60" height="3.60" fill="#1f77b4" fill-opacity="0.5" stroke="#1f77b4" stroke-width="0.6" />
<rect x="445.80" y="269.62" width="3.60" height="3.60" fill="#1f77b4" fill-opacity="0.5" stroke="#1f77b4" stroke-width="0.6" />
<rect x="453.00" y="269.62" width="3.60" height="3.60" fill="#1f77b4" fill-opacity="0.5" stroke="#1f77b4" stroke-width="0.6" />
<rect x="460.20" y="269.62" width="3.60" height="3.60" fill="#1f77b4" fill-opacity="0.5" stroke="#1f77b4" stroke-width="0.6" />
<rect x="467.40" y="269.62" width="3.60" height="3.60" fill="#1f77b4" fill-opacity="0.5" stroke="#1f77b4" stroke-width="0.6" />
<rect x="474.60" y="269.62" width="3.60" height="3.60" fill="#1f77b4" fill-opacity="0.5" stroke="#1f77b4" stroke-width="0.6" />
<rect x="481.80" y="269.62" width="3.60" height="3.60" fill="#1f77b4" fill-opacity="0.5" stroke="#1f77b4" stroke-width="0.6" />
<rect x="489.00" y="269.62" width="3.60" height="3.60" fill="#1f77b4" fill-opacity="0.5" stroke="#1f77b4" stroke-width="0.6" />
<rect x="496.20" y="269.62" width="3.60" height="3.60" fill="#1f77b4" fill-opacity="0.5" stroke="#1f77b4" stroke-width="0.6" />
<rect x="503.40" y="269.62" width="3.60" height="3.60" fill="#1f77b4" fill-opacity="0.5" stroke="#1f77b4" stroke-width="0.6" />
<rect x="510.60" y="269.62" width="3.60" height="3.60" fill="#1f77b4" fill-opacity="0.5" stroke="#1f77b4" stroke-width="0.6" />
<rect x="517.80" y="269.62" width="3.60" height="3.60" fill="#1f77b4" fill-opacity="0.5" stroke="#1f77b4" stroke-width="0.6" />
<rect x="525.00" y="269.62" width="3.60" height="3.60" fill="#1f77b4" fill-opacity="0.5" stroke="#1f77b4" stroke-width="0.6" />
<rect x="532.20" y="269.62" width="3.60" height="3.60" fill="#1f77b4" fill-opacity="0.5" stroke="#1f77b4" stroke-width="0.6" />
<rect x="539.40" y="269.62" width="3.60" height="3.60" fill="#1f77b4" fill-opacity="0.5" stroke="#1f77b4" stroke-width="0.6" />
<rect x="546.60" y="269.62" width="3.60" height="3.60" fill="#1f77b4" fill-opacity="0.5" stroke="#1f77b4" stroke-width="0.6" />
<rect x="553.80" y="269.62" width="3.60" height="3.60" fill="#1f77b4" fill-opacity="0.5" stroke="#1f77b4" stroke-width="0.6" />
<rect x="561.00" y="269.62" width="3.60" height="3.60" fill="#1f77b4" fill-opacity="0.5" stroke="#1f77b4" stroke-width="0.6" />
<rect x="568.20" y="269.62" width="3.60" height="3.60" fill="#1f77b4" fill-opacity="0.5" stroke="#1f77b4" stroke-width="0.6" />
<rect x="575.40" y="269.62" width="3.60" height="3.60" fill="#1f77b4" fill-opacity="0.5" stroke="#1f77b4" stroke-width="0.6" />
<rect x="582.60" y="269.62" width="3.60" height="3.60" fill="#1f77b4" fill-opacity="0.5" stroke="#1f77b4" stroke-width="0.6" />
<rect x="589.80" y="269.62" width="3.60" height="3.60" fill="#1f77b4" fill-opacity="0.5" stroke="#1f77b4" stroke-width="0.6" />
<rect x="597.00" y="269.62" width="3.60" height="3.60" fill="#1f77b4" fill-opacity="0.5" stroke="#1f77b4" stroke-width="0.6" />
<rect x="604.20" y="269.62" width="3.60" height="3.60" fill="#1f77b4" fill-opacity="0.5" stroke="#1f77b4" stroke-width="0.6" />
<rect x="611.40" y="269.62" width="3.60" height="3.60" fill="#1f77b4" fill-opacity="0.5" stroke="#1f77b4" stroke-width="0.6" />
<rect x="618.60" y="269.62" width="3.60" height="3.60" fill="#1f77b4" fill-opacity="0.5" stroke="#1f77b4" stroke-width="0.6" />
<rect x="625.80" y="269.62" width="3.60" height="3.60" fill="#1f77b4" fill-opacity="0.5" stroke="#1f77b4" stroke-width="0.6" />
<rect x="633.00" y="269.62" width="3.60" height="3.60" fill="#1f77b4" fill-opacity="0.5" stroke="#1f77b4" stroke-width="0.6" />
<rect x="640.20" y="269.62" width="3.60" height="3.60" fill="#1f77b4" fill-opacity="0.5" stroke="#1f77b4" stroke-width="0.6" />
<rect x="647.40" y="269.62" width="3.60" height="3.60" fill="#1f77b4" fill-opacity="0.5" stroke="#1f77b4" stroke-width="0.6" />
<rect x="654.60" y="269.62" width="3.60" height="3.60" fill="#1f77b4" fill-opacity="0.5" stroke="#1f77b4" stroke-width="0.6" />
<text x="20" y="575" font-family="sans-serif" font-size="13">Both active placements remain unchanged; pad numbers and any board net assignments are preserved. Manufacturer drawing values are recorded in the JSON evidence.</text>
</svg>
